<svg width="64" height="47.99999999999999" 
    xmlns="http://www.w3.org/2000/svg" preserveAspectRatio="xMidYMid meet">

    <g>
        <title>background</title>
        <rect fill="none" id="canvas_background" height="402" width="582" y="-1" x="-1"/>
    </g>
    <g>
        <title>Layer 1</title>
        <g id="svg_1" fill="#000000" transform="translate(0,48) scale(0.10000000149011612,-0.10000000149011612) ">
            <path id="svg_2" d="m493,473c-7,-3 -13,-10 -13,-17c0,-7 -9,-24 -21,-37l-21,-24l22,-5c19,-5 18,-7 -12,-24c-18,-11 -37,-25 -43,-32c-16,-19 -63,-25 -103,-14c-41,11 -92,52 -92,73c0,7 -5,18 -11,24c-13,13 -76,-18 -97,-48c-9,-12 -25,-19 -48,-19c-32,0 -34,-2 -28,-27c4,-16 11,-34 17,-40c5,-7 7,-23 4,-35c-9,-33 69,-105 107,-99c4,1 14,-3 20,-8c7,-6 27,-9 44,-6c36,4 50,-9 32,-30c-9,-11 -10,-19 -1,-28c6,-8 8,-16 6,-19c-3,-3 3,-8 15,-11c11,-3 20,-1 20,4c0,5 14,9 30,9c17,0 30,-4 30,-10c0,-5 9,-10 20,-10c23,0 26,-10 8,-28c-9,-9 -8,-12 5,-12c10,0 17,8 17,18c0,11 16,24 45,36c34,13 51,28 65,55c21,43 21,58 -2,93c-15,23 -15,26 0,43c15,16 15,17 1,12c-9,-3 -22,-1 -30,4c-11,7 -10,11 6,23c12,9 22,11 26,4c3,-5 21,4 40,21c18,17 37,31 42,31c4,0 7,6 6,13c-1,6 3,25 9,40c16,37 15,42 -2,28c-12,-10 -20,-9 -40,4c-14,10 -26,21 -26,26c0,12 -33,27 -47,22z"/>
            <path id="svg_3" d="m527,93c-4,-3 -7,-13 -7,-22c1,-13 3,-13 11,2c11,19 8,33 -4,20z"/>
        </g>
    </g>
</svg>