<svg width="121" height="121" 
    xmlns="http://www.w3.org/2000/svg" preserveAspectRatio="xMidYMid meet">

    <g>
        <title>background</title>
        <rect fill="none" id="canvas_background" height="402" width="582" y="-1" x="-1"/>

        <!-- svg2gcode参数
            const k = 0.35
            const offsetX = -21
            const offsetY = -21 -->
    </g>
    <g>
        <title>Layer 1</title>
        <path id="svg_27" d="m50.500001,21.399999c-18.7,4.6 -32,23 -30.2,41.900001c2,21.8 19.5,38.000001 40.600001,37.600001c3.6,-0.1 5.8,-0.3 4.9,-0.6c-2.9,-0.7 -2.1,-2.3 1.2,-2.3l2.9,0l-2.2,-2.3c-1.2,-1.2 -3.2,-3.6 -4.4,-5.2c-1.6,-2.1 -2.2,-2.5 -2.3,-1.3c0,0.9 -1.1,3 -2.5,4.6c-2.7,3.2 -2.4,4.2 1.2,4.2c1.2,0 2.3,0.5 2.3,1.1c0,2 -9.8,0.2 -16.7,-3c-3.9,-1.9 -8.3,-5.1 -11.5,-8.3c-11.5,-11.8 -14.4,-26.3 -8.3,-42.200001c7.2,-18.8 24.5,-27.4 43.600001,-21.6c10,3 13.6,5 19.2,10.8c7,7.3 10.1,15.3 10.1,26.7c0,8 -0.3,9.7 -3.1,15.8c-2.1,4.4 -5.2,8.8 -9.2,12.7c-6.2,6.2 -5.4,6.6 1.4,0.7c8.6,-7.4 14.2,-21.6 13.2,-33.2c-2.1,-25.2 -25.7,-42.100001 -50.200001,-36.100001z"/>
        <path id="svg_30" d="m53.000001,24.999999c0,0.6 2.6,1.1 5.8,1.1c3.1,0.1 6.2,0.2 6.7,0.4c0.6,0.1 1.8,0.3 2.8,0.3c3.8,0.4 1.4,2.2 -2.8,2.2c-3.8,0 -4.5,0.3 -4.5,1.9c0,1.1 0.5,2.3 1.1,2.7c1.1,0.7 0.6,9.3 -0.7,12.8c-0.5,1.2 0,1.6 2,1.6c1.4,0 2.6,0.4 2.6,1c0,0.5 -0.7,1 -1.5,1c-0.8,0 -1.5,0.4 -1.5,1c0,0.5 0.6,1 1.4,1c0.8,0 2.4,1.2 3.6,2.7c1.7,2.2 2.1,3.7 1.7,6.6c-0.6,4.1 -3.1,7.7 -5.5,7.7c-0.9,0 -1.2,0.6 -0.8,1.6c0.3,0.9 0.6,2.6 0.6,3.9c0,1.5 0.7,2.6 2,3c1.1,0.4 2.7,1.6 3.4,2.8c1.9,3 2.4,8.9 0.9,9.4c-0.9,0.3 -1.3,-0.6 -1.3,-2.7c0,-4.2 -1.6,-7 -4.1,-7c-1.9,0 -2,0.4 -1.4,3.7c0.7,4.2 3.4,9 6.4,11.7c1.9,1.7 2.2,1.7 7.2,-1c2.8,-1.6 7.3,-5.3 10,-8.3c4,-4.5 4.6,-5.7 3.6,-6.9c-0.8,-1 -1.2,-5.4 -1.2,-12.9c0,-10 -0.2,-11.3 -1.7,-11.3c-1.1,0 -2,-1 -2.4,-2.6c-0.4,-1.7 -1.1,-2.3 -2.1,-2c-0.8,0.3 -1.7,0.6 -1.9,0.6c-0.2,0 -0.4,0.7 -0.4,1.4c0,0.8 1.2,2.1 2.8,2.8c3.6,1.7 4.1,6.3 1.2,10.1c-1.7,2.2 -3,2.7 -6.5,2.7c-4.6,0 -6,-1 -7,-5.3c-0.9,-3.4 1.5,-7.4 4.6,-7.9c1.3,-0.2 2.4,-0.9 2.7,-1.6c0.3,-0.9 -0.2,-1 -2.1,-0.3c-1.9,0.8 -2.8,0.6 -3.9,-0.7c-1.9,-2.3 -2.2,-7.3 -0.5,-9.6c2,-2.7 4,-1.1 3.2,2.6l-0.7,3l6.6,-0.7c6.2,-0.7 6.6,-0.6 6.6,1.3c0,1.1 1.2,2.7 2.6,3.7c2.4,1.5 2.5,2 1.8,6.8c-0.4,2.9 -0.6,7.8 -0.6,11c0.4,14.3 4,6 4.1,-9.4l0.1,-10.5l-4.1,-6.9c-5.6,-9.3 -10.5,-13.5 -19.4,-16.6c-6,-2.1 -19.5,-3.4 -19.5,-1.9z"/>
        <path id="svg_33" d="m44.300001,27.799999c-8.7,4.6 -15,11.3 -17.7,18.8c-1.8,5.1 -3.1,17.5 -1.7,15.4c0.6,-0.8 1.1,-2.5 1.1,-3.6c0,-2.9 3.7,-7.4 7.4,-8.9l3.1,-1.3l-2.7,-1.1c-1.6,-0.6 -2.8,-1.5 -2.8,-2c0,-3.3 6.7,-2.2 7.5,1.2c0.4,1.2 1.9,2.8 3.5,3.5c3.9,1.8 7,8.4 7,15c0,2.9 -0.4,5.2 -1,5.2c-1,0 -1.4,-2.5 -1.1,-6.7c0.1,-1.1 -0.3,-2.4 -0.8,-2.8c-0.6,-0.3 -1.1,-1.7 -1.1,-3c0,-1.4 -1.1,-3.2 -2.6,-4.4c-3.2,-2.5 -4.4,-2.6 -4.4,-0.6c0,0.9 0.9,1.5 2.5,1.5c2,0 2.5,0.5 2.5,2.6c0,1.4 -0.5,3.4 -1,4.5c-0.8,1.3 -0.7,2.5 0,3.9c0.8,1.4 0.7,2.2 -0.5,3.2c-3.9,3.2 -4.5,4.1 -4.5,5.9c0,1.2 1.4,2.8 3.5,4c4,2.4 4.3,2.9 1.5,2.9c-1.2,0 -3.2,-1.2 -4.7,-2.6c-2.1,-2.1 -2.4,-3.2 -2,-6.2c0.8,-4.5 -0.7,-6.6 -3.3,-4.9c-2.2,1.3 -3.9,0.2 -2.2,-1.5c0.7,-0.7 1.2,-2.4 1.2,-3.9c0,-1.5 0.7,-3.3 1.6,-4c1.7,-1.4 3.8,-5.9 3.1,-6.6c-0.2,-0.2 -1.1,-0.1 -2,0.3c-2.9,1.1 -5.6,6.9 -6.7,14.3c-0.9,6.5 -0.8,7.6 1.1,11.3c3,5.9 10.7,13.2 17.7,16.7c7.1,3.6 8.7,3.8 9.6,1.3c0.4,-0.9 1.6,-3.3 2.6,-5.2c2,-3.5 2.7,-10 1.2,-10c-1.5,0 -4.9,4.4 -5.9,7.4c-0.9,2.9 -3.3,4.8 -3.3,2.7c0,-2.6 4.4,-10.2 6.8,-11.8c2,-1.3 2.7,-2.7 2.7,-5.1c0,-2 -0.5,-3.2 -1.3,-3.2c-0.8,0 -2.7,-1.3 -4.3,-2.9c-2.2,-2.3 -2.9,-3.9 -2.9,-6.8c0,-4 2.7,-8.3 5.3,-8.3c0.7,-0.1 0.5,-0.6 -0.5,-1.4c-2.5,-1.9 -2.2,-3.6 0.6,-3.6c1.6,0 2.6,-0.7 3,-2.3c0.9,-3.5 0.7,-9.5 -0.4,-10.2c-0.5,-0.3 -1,-1.5 -1,-2.7c0,-1.6 -0.5,-1.9 -2.2,-1.5c-3.1,0.8 -6.1,-1 -5.5,-3.4c0.7,-2.5 0.2,-2.4 -6,0.9zm1.4,36.600001c-0.9,2.6 -2.7,1.5 -2.7,-1.6c0.1,-3.1 0.1,-3.2 1.5,-1.3c0.9,1 1.4,2.4 1.2,2.9z"/>
        <path id="svg_52" d="m58.000001,52.999999c0,0.6 0.6,1 1.3,0.9c2.6,-0.3 4.7,0.1 4.7,1.1c0,0.6 -1.1,0.8 -2.5,0.4c-4.7,-1.2 -8.6,5.1 -5.3,8.4c0.8,0.8 0.9,1.2 0.1,1.2c-0.6,0 -1.3,-0.5 -1.5,-1.2c-0.3,-0.8 -0.6,-0.9 -1.1,-0.1c-0.4,0.6 0.2,1.8 1.3,2.8c1.9,1.7 2,1.7 2,0.1c0,-1.3 0.7,-1.7 2.4,-1.4c2.4,0.3 5.6,-1.7 5.6,-3.5c0,-0.5 -0.8,-0.3 -1.8,0.6c-2.5,2.3 -4.9,2.1 -6.2,-0.3c-1.4,-2.5 0.3,-6 2.8,-6c1,0 3,1.3 4.5,2.8l2.8,2.9l-2.2,2.7c-1.4,1.8 -2.8,2.6 -4,2.3c-1.1,-0.3 -2.1,-0.1 -2.4,0.3c-1,1.6 3,1.7 5.8,0.1c2.9,-1.6 2.9,-1.6 3.2,-7.4c0.1,-2.6 -0.2,-3.7 -1.2,-3.7c-0.8,0 -1.2,-0.4 -0.9,-0.9c0.6,-0.9 -3.6,-3.1 -5.9,-3.1c-0.8,0 -1.5,0.5 -1.5,1zm9,6.2c0,0.6 -0.7,0.5 -1.5,-0.2c-0.8,-0.7 -1.5,-1.7 -1.5,-2.2c0,-0.6 0.7,-0.5 1.5,0.2c0.8,0.7 1.5,1.7 1.5,2.2z"/>
        <path id="svg_54" d="m54.100001,55.599999c-2.2,2.8 -2.9,7.4 -1.1,7.4c0.6,0 1,-0.6 0.9,-1.3c-0.3,-2.7 0.2,-4.6 1.7,-6.2c0.9,-0.9 1.4,-1.8 1.1,-2.1c-0.2,-0.3 -1.4,0.7 -2.6,2.2z"/>
        <path id="svg_59" d="m38.000001,58.599999c0,0.8 0.5,1.2 1,0.9c0.6,-0.4 0.8,-1.1 0.5,-1.6c-0.9,-1.4 -1.5,-1.1 -1.5,0.7z"/>
        <path id="svg_60" d="m79.500001,57.999999c2.7,1.2 3.5,1.2 3.5,0c0,-0.6 -1.2,-1 -2.7,-0.9c-2.5,0 -2.6,0.1 -0.8,0.9z"/>
        <path id="svg_62" d="m75.000001,59.999999c0.8,0.5 2.2,1 3,1c1.3,0 1.3,-0.1 0,-1c-0.8,-0.5 -2.2,-1 -3,-1c-1.3,0 -1.3,0.1 0,1z"/>
        <path id="svg_63" d="m34.000001,60.999999c0,0.5 0.5,1 1,1c0.6,0 1,-0.5 1,-1c0,-0.6 -0.4,-1 -1,-1c-0.5,0 -1,0.4 -1,1z"/>
        <path id="svg_64" d="m81.500001,62.999999c0.3,0.5 0.8,1 1.1,1c0.2,0 0.4,-0.5 0.4,-1c0,-0.6 -0.5,-1 -1.1,-1c-0.5,0 -0.7,0.4 -0.4,1z"/>
        <path id="svg_66" d="m36.500001,63.999999c-1,1.6 1.6,4.3 2.8,3.1c1.1,-1.1 0.2,-4.1 -1.2,-4.1c-0.5,0 -1.3,0.5 -1.6,1z"/>
        <path id="svg_69" d="m77.000001,64.999999c0,0.5 0.9,1 2.1,1c1.1,0 1.7,-0.5 1.4,-1c-0.3,-0.6 -1.3,-1 -2.1,-1c-0.8,0 -1.4,0.4 -1.4,1z"/>
    </g>
</svg>