<!DOCTYPE svg PUBLIC "-//W3C//DTD SVG 20010904//EN" "http://www.w3.org/TR/2001/REC-SVG-20010904/DTD/svg10.dtd">
<svg version="1.0" xmlns="http://www.w3.org/2000/svg" width="1500px" height="1500px" viewBox="0 0 15000 15000" preserveAspectRatio="xMidYMid meet">
<g id="layer101" fill="#ffffff" stroke="none">
 <path d="M14499 11633 l-49 -48 -66 -230 c-36 -126 -92 -324 -125 -440 -71 -246 -206 -731 -434 -1550 -90 -324 -178 -637 -195 -695 -55 -190 -178 -621 -250 -880 -39 -140 -156 -562 -261 -938 -104 -376 -205 -733 -223 -795 -19 -62 -78 -267 -132 -457 -92 -323 -99 -352 -102 -453 l-4 -108 59 -60 60 -59 102 0 103 0 55 53 55 53 152 549 c84 303 165 588 179 635 30 98 126 435 226 795 310 1118 473 1702 495 1770 36 118 211 742 541 1929 91 330 173 618 181 640 18 54 18 189 0 225 -8 15 -35 46 -60 69 l-46 42 -106 0 -105 0 -50 -47z"/>
 <path d="M11739 11533 l-59 -60 0 -3506 0 -3507 -1900 0 c-1045 0 -1900 3 -1900 6 0 6 48 106 195 409 96 198 327 675 473 975 73 151 146 303 309 640 90 184 195 400 350 720 58 118 109 226 114 239 9 23 13 19 55 -55 25 -43 62 -108 81 -144 20 -36 73 -130 118 -210 134 -238 187 -333 211 -375 12 -22 54 -98 94 -170 171 -304 203 -363 342 -610 80 -143 176 -314 213 -380 37 -66 95 -169 128 -230 33 -60 63 -114 67 -120 4 -5 22 -37 40 -70 67 -124 101 -145 240 -145 l101 0 55 54 54 55 0 123 c1 68 11 1502 24 3188 13 1686 20 3074 16 3085 -4 11 -30 41 -58 68 l-51 47 -106 0 -106 0 -49 -46 c-30 -28 -62 -71 -79 -108 -16 -33 -71 -146 -121 -251 -51 -104 -120 -248 -155 -320 -34 -71 -104 -215 -155 -320 -51 -104 -155 -320 -233 -480 -139 -289 -222 -459 -397 -820 -51 -104 -121 -251 -157 -325 -36 -74 -93 -192 -128 -262 l-63 -128 -55 98 c-30 53 -99 176 -152 272 -110 196 -237 422 -343 610 -38 69 -85 152 -102 185 -18 33 -47 85 -65 115 -18 30 -61 107 -95 170 -35 63 -85 152 -112 196 -26 45 -48 84 -48 87 0 3 -15 32 -34 64 -43 73 -260 460 -299 533 -16 30 -64 116 -106 190 -43 74 -104 185 -137 245 -41 77 -79 130 -124 178 l-66 67 -108 0 -107 0 -49 -47 c-49 -49 -62 -74 -626 -1193 -54 -107 -105 -208 -115 -223 l-16 -28 -108 213 c-59 117 -166 328 -238 468 -71 140 -176 347 -233 460 -79 158 -112 214 -146 246 -88 83 -90 84 -201 84 l-100 0 -59 -58 -58 -59 0 -841 0 -842 -682 0 c-585 1 -686 3 -702 15 -14 11 -47 15 -120 15 l-99 0 -59 -58 -58 -59 0 -2571 0 -2572 -715 0 -715 0 -2 2596 -3 2595 -57 55 -56 54 -108 0 -107 0 -54 -53 -53 -54 0 -2596 0 -2597 -802 0 -801 0 -59 -58 -58 -59 0 -108 0 -108 53 -54 54 -53 3466 0 3467 0 -24 -53 c-13 -28 -70 -146 -126 -262 -129 -265 -236 -486 -310 -640 -32 -66 -108 -223 -170 -350 l-112 -230 4 -98 3 -98 57 -55 56 -54 102 0 101 0 51 47 c53 50 69 79 368 698 215 445 395 815 480 988 l52 107 2009 0 2009 0 0 -835 c0 -910 -3 -861 57 -916 46 -43 67 -49 169 -49 l97 0 59 58 58 59 0 841 0 842 1347 0 1346 0 60 59 59 60 -4 106 -3 106 -57 55 -56 54 -1346 0 -1346 0 0 3506 0 3506 -54 56 -55 57 -106 3 -106 4 -60 -59z m-4241 -780 c18 -36 73 -136 233 -421 40 -70 79 -140 88 -157 21 -38 105 -187 239 -425 57 -102 128 -228 157 -280 29 -52 105 -189 170 -305 65 -115 139 -248 165 -295 26 -47 95 -169 154 -273 58 -103 106 -189 106 -191 0 -2 31 -57 68 -122 38 -66 92 -162 120 -214 l51 -95 -85 -175 c-47 -96 -105 -215 -129 -265 -23 -49 -87 -180 -140 -290 -53 -110 -129 -265 -167 -345 -39 -80 -104 -215 -146 -300 -41 -85 -110 -229 -154 -320 -44 -91 -111 -228 -148 -305 -37 -77 -104 -214 -147 -305 -79 -161 -118 -242 -350 -720 -63 -129 -142 -292 -175 -362 l-62 -128 -1613 0 -1613 0 0 710 0 710 783 0 784 0 39 29 c22 15 52 43 67 60 l27 33 0 804 0 804 860 0 860 0 40 36 40 36 0 107 c0 77 -4 114 -16 136 -9 17 -126 248 -261 515 -135 267 -310 612 -389 767 l-144 282 124 243 c68 134 215 423 326 643 223 441 210 415 215 415 3 0 13 -17 23 -37z m-1481 -748 c78 -154 168 -333 201 -398 l61 -118 -149 -292 c-81 -161 -180 -355 -219 -432 l-70 -140 -1 860 c0 837 1 859 18 830 10 -16 82 -156 159 -310z m4688 -1551 c-8 -1028 -15 -1995 -15 -2149 0 -275 -1 -279 -19 -250 -10 17 -53 93 -96 170 -43 77 -99 178 -125 225 -26 47 -68 121 -93 165 -24 44 -57 103 -72 130 -16 28 -57 102 -93 165 -35 63 -92 165 -125 225 -33 61 -68 122 -78 136 -11 15 -22 35 -26 45 -8 18 -31 60 -208 374 -45 80 -101 181 -125 225 l-43 80 71 145 c110 228 367 760 538 1113 86 177 191 394 234 482 43 88 123 254 179 368 55 115 101 213 101 219 0 6 2 9 5 6 3 -2 -2 -846 -10 -1874z m-5325 -674 l0 -1470 -630 0 -630 0 0 1470 0 1470 630 0 630 0 0 -1470z m1386 745 c114 -225 215 -425 226 -442 l20 -33 -466 0 -465 0 88 173 c48 94 152 299 231 455 96 190 146 279 151 270 5 -7 101 -197 215 -423z"/>
 <path d="M167 11372 l-37 -38 0 -2709 0 -2708 58 -59 59 -58 108 0 108 0 54 53 53 54 0 2531 0 2532 1681 0 1681 0 56 54 57 55 3 106 4 106 -59 60 -60 59 -1864 0 -1865 0 -37 -38z"/>
 <path d="M12535 3880 c-3 -5 -23 -10 -44 -10 -37 0 -47 -6 -145 -81 -53 -42 -66 -75 -66 -175 0 -89 0 -91 33 -122 20 -19 43 -32 59 -32 20 0 34 -13 65 -57 21 -32 77 -112 123 -178 46 -66 133 -192 193 -280 60 -88 142 -205 182 -260 148 -206 165 -236 165 -299 0 -50 4 -60 36 -96 29 -32 43 -40 71 -40 23 0 46 -9 65 -25 27 -23 37 -25 135 -25 l106 0 59 58 58 59 -1 99 0 99 -82 118 c-45 64 -134 192 -197 284 -63 92 -139 201 -169 243 -30 41 -132 189 -228 328 -150 219 -173 258 -173 291 0 32 -7 45 -40 75 -39 35 -42 36 -119 36 -44 0 -83 -4 -86 -10z"/>
 <path d="M8380 3802 c-41 -42 -104 -113 -140 -158 -36 -44 -135 -163 -220 -264 -85 -100 -164 -194 -174 -209 -11 -14 -43 -53 -71 -86 -29 -33 -116 -136 -194 -230 -78 -93 -164 -196 -192 -228 -27 -33 -52 -70 -55 -83 -3 -13 -4 -62 -3 -109 l4 -86 57 -55 56 -54 105 0 c127 0 118 -6 269 172 57 67 141 167 188 223 47 55 95 112 105 126 11 15 101 122 200 239 99 117 191 227 205 245 14 18 70 86 126 151 143 169 134 152 134 273 l0 104 -53 54 -54 53 -109 0 -109 0 -75 -78z"/>
 <path d="M11071 3825 c-26 -24 -86 -90 -132 -146 -46 -56 -136 -164 -199 -240 -63 -76 -171 -206 -240 -290 -69 -83 -161 -194 -205 -247 -44 -52 -89 -106 -100 -121 -10 -14 -64 -79 -119 -144 l-100 -119 -4 -83 c-6 -106 7 -142 68 -199 l49 -46 106 0 106 0 52 53 c50 49 1017 1213 1065 1280 19 28 22 44 22 136 l0 104 -53 54 -54 53 -107 0 -107 0 -48 -45z"/>
 </g>

</svg>